<svg version="1.1" id="Layer_1" xmlns="http://www.w3.org/2000/svg" xmlns:xlink="http://www.w3.org/1999/xlink" x="0px" y="0px"
	 width="100%" viewBox="0 0 832 560" enable-background="new 0 0 832 560" xml:space="preserve">
<path fill="#000000" opacity="1.000000" stroke="none" 
	d="
M261.631317,363.547028 
	C309.164642,342.102417 356.346039,320.799408 403.535126,299.513428 
	C405.722260,298.526855 407.292969,297.462524 407.919830,294.693756 
	C409.273163,288.716431 414.937195,286.018463 420.760071,288.490540 
	C423.511536,289.658691 425.695740,289.446167 428.304443,288.261688 
	C474.836334,267.134430 521.396301,246.069092 567.962830,225.018097 
	C587.985901,215.966370 608.019226,206.936432 628.098267,198.009949 
	C630.724304,196.842514 632.319031,195.575607 632.981323,192.471085 
	C634.079590,187.322830 639.208679,184.919357 644.327209,186.496216 
	C649.271179,188.019302 652.290405,193.113663 651.001587,197.757935 
	C649.585999,202.859283 644.037476,206.547714 639.433350,204.409286 
	C634.973633,202.337936 631.666382,203.624893 627.762878,205.391998 
	C561.802856,235.252106 495.802277,265.022461 429.786896,294.759857 
	C427.806396,295.652008 426.748444,296.692780 426.117004,298.921967 
	C424.279510,305.408844 419.459839,307.705200 412.909851,305.286682 
	C410.327515,304.333130 408.135620,304.485046 405.741119,305.569977 
	C344.194550,333.456360 282.638062,361.320831 221.082565,389.187500 
	C217.443741,390.834839 213.818771,392.514954 210.151627,394.097046 
	C205.773636,395.985748 201.702408,397.572632 200.041031,403.150452 
	C198.638763,407.858337 192.219696,409.151581 187.677689,406.759399 
	C183.435760,404.525330 181.627090,399.199677 183.590775,394.725616 
	C185.634064,390.070190 191.150162,387.492188 195.576889,389.886139 
	C198.760864,391.608032 201.085876,390.872681 203.929199,389.578125 
	C223.018097,380.887207 242.157700,372.307617 261.631317,363.547028 
z"/>
<path fill="#000000" opacity="1.000000" stroke="none" 
	d="
M400.743347,246.395996 
	C405.292694,243.569016 407.525696,244.488815 408.255859,249.181168 
	C408.891754,253.267639 409.532104,257.353424 410.405396,262.943237 
	C413.925964,257.434021 416.696533,253.064713 419.501923,248.717926 
	C422.231049,244.489365 423.595734,244.044434 428.391632,245.668228 
	C423.241425,252.525314 421.920807,260.321716 422.007355,269.049622 
	C420.082092,269.490540 417.395813,269.603394 414.132446,268.495941 
	C419.443420,264.166626 418.062439,257.764862 420.310486,252.579071 
	C416.209015,257.801025 413.216309,263.795288 408.450195,269.418976 
	C405.224121,263.553131 406.283508,257.685303 404.694794,252.572083 
	C400.935120,263.939941 400.935120,263.939941 402.432404,268.450348 
	C398.969604,269.446075 398.969604,269.446075 395.350800,268.261658 
	C400.368347,263.012573 400.463867,255.998978 402.334015,249.626251 
	C402.743927,248.229370 401.675110,247.521500 400.743347,246.395996 
z"/>
<path fill="#000000" opacity="1.000000" stroke="none" 
	d="
M694.086548,162.184906 
	C694.384521,164.559387 693.547302,166.134476 692.193359,167.471634 
	C691.160461,168.491791 690.907959,169.451645 691.338440,170.997177 
	C692.937439,176.738525 691.351990,179.918015 685.783875,181.534653 
	C680.537659,183.057831 675.172180,182.480240 669.499023,181.896667 
	C675.113098,174.545105 676.522217,166.868317 675.866028,158.499527 
	C683.673035,156.148621 690.878967,157.397110 694.086548,162.184906 
M678.713318,172.406860 
	C678.974976,174.878189 674.418152,178.515060 680.269409,179.598618 
	C683.245728,180.149765 685.800110,178.945969 687.223267,176.084000 
	C687.912109,174.698669 688.192871,172.959991 686.830750,172.005951 
	C684.431335,170.325302 681.754700,169.707336 678.713318,172.406860 
M681.047913,167.887970 
	C683.232605,168.399277 685.399658,168.286896 687.228455,166.962738 
	C688.729858,165.875702 689.955383,164.318649 689.305420,162.300995 
	C688.678833,160.355835 686.841187,160.344696 685.153381,160.367661 
	C680.114624,160.436203 680.754822,164.212158 681.047913,167.887970 
z"/>
<path fill="#000000" opacity="1.000000" stroke="none" 
	d="
M54.989365,408.121948 
	C52.578941,408.334442 50.414440,409.008331 48.334709,407.198853 
	C56.682949,400.906006 58.834606,390.279480 66.171402,382.212006 
	C70.467674,390.654999 66.926163,399.942566 71.599876,407.658936 
	C68.684937,408.920746 65.899139,408.273315 62.671005,408.055573 
	C63.485817,405.454315 66.059692,403.583588 64.015999,401.300171 
	C62.625004,399.746002 60.507793,400.109344 58.854145,400.690399 
	C56.102112,401.657410 55.305969,403.904877 55.922352,406.726257 
	C56.001354,407.087860 55.540211,407.567474 54.989365,408.121948 
M60.165287,396.666656 
	C60.817844,398.252136 62.190086,398.035950 62.981735,397.248444 
	C64.437614,395.800140 63.869255,394.071106 63.027466,391.791687 
	C61.866787,393.607727 61.070202,394.854095 60.165287,396.666656 
z"/>
<path fill="#000000" opacity="1.000000" stroke="none" 
	d="
M766.112427,176.786102 
	C766.942871,173.712662 767.581299,170.965958 768.388489,168.269791 
	C768.683167,167.285645 769.522339,166.564957 770.695923,166.884140 
	C771.878235,167.205719 772.207947,168.252411 771.972351,169.258804 
	C770.730286,174.565079 769.913269,180.073395 767.310181,184.886520 
	C765.696472,187.870209 762.731140,189.804642 758.962097,189.102264 
	C757.175659,188.769348 756.076843,187.416168 756.049744,185.540756 
	C756.031433,184.275497 756.764404,183.214645 758.060242,183.039291 
	C760.654236,182.688263 760.062622,185.036438 760.694824,186.663818 
	C762.188171,185.813019 764.569946,184.574051 762.270386,183.371277 
	C756.888550,180.556290 757.142822,176.632248 758.834778,172.073883 
	C757.676147,171.148117 755.442200,173.844437 755.439575,171.012527 
	C755.437439,168.703491 756.996460,166.941849 759.115601,166.085495 
	C760.981323,165.331558 762.370239,166.376541 763.051208,168.120316 
	C763.685791,169.745209 763.079468,171.366867 762.750854,173.004745 
	C762.312561,175.189636 760.773438,177.288208 761.942139,179.709076 
	C764.449036,180.538757 765.207886,178.819733 766.112427,176.786102 
z"/>
<path fill="#000000" opacity="1.000000" stroke="none" 
	d="
M138.905304,403.755920 
	C140.304291,408.508575 142.168198,405.672455 142.937683,403.986572 
	C144.087357,401.467682 144.400452,398.576202 145.178162,395.874512 
	C145.572769,394.503632 145.811447,392.528351 147.852844,392.986328 
	C149.906525,393.447083 149.322678,395.332428 148.992432,396.721863 
	C148.111130,400.429504 147.205368,404.139771 146.083374,407.779327 
	C145.062973,411.089417 143.023209,413.706085 139.643463,414.911530 
	C137.456192,415.691681 135.337173,415.537109 133.922989,413.334503 
	C133.131165,412.101227 133.010300,410.728638 134.202744,409.719727 
	C135.529877,408.596802 136.526093,409.040283 137.267792,410.636627 
	C138.843857,414.028809 139.757263,411.471252 141.015579,410.350189 
	C134.101959,405.005920 134.101959,405.005920 136.760605,396.041229 
	C135.023758,395.963501 135.064453,398.493500 133.243225,398.192993 
	C133.090149,397.898743 132.613419,397.407349 132.713089,397.107697 
	C133.642838,394.312683 135.101517,391.319733 138.477982,392.315460 
	C141.923843,393.331665 140.805191,396.495270 140.061401,399.095856 
	C139.651321,400.529694 139.316147,401.984955 138.905304,403.755920 
z"/>
<path fill="#000000" opacity="1.000000" stroke="none" 
	d="
M89.370285,397.877869 
	C87.138451,398.473083 87.087204,397.166595 87.776543,396.086029 
	C89.424820,393.502289 91.381218,391.101929 95.030128,392.286163 
	C96.359146,392.717438 97.599548,392.850739 98.911728,392.331696 
	C100.812393,391.579865 102.531036,391.837616 103.840187,393.496826 
	C104.512299,394.348724 104.575394,395.352020 103.897705,396.265289 
	C102.352028,398.348236 100.581635,396.352417 98.659241,396.438141 
	C97.886536,399.524261 96.670898,402.510559 96.632889,405.760162 
	C99.908478,406.280426 100.005234,402.615387 102.631813,402.597626 
	C103.685226,404.935577 101.920204,406.195496 100.623283,407.510071 
	C99.656418,408.490082 88.974091,408.900757 87.872398,408.124847 
	C86.652557,407.265747 85.942375,406.047211 86.805969,404.708771 
	C88.196228,402.554016 89.994354,403.969055 91.787262,404.775848 
	C93.093269,401.508118 94.012123,398.438263 94.047729,395.134705 
	C91.195999,394.135895 90.877800,396.671295 89.370285,397.877869 
z"/>
<path fill="#000000" opacity="1.000000" stroke="none" 
	d="
M722.597290,178.518585 
	C723.513916,177.692917 723.743103,176.426163 725.343201,176.691849 
	C726.080505,178.709961 724.702271,179.956436 723.459412,181.154068 
	C722.092896,182.470917 711.855835,182.926254 710.365845,181.789291 
	C709.390503,181.045013 708.561890,180.034058 709.326416,178.814056 
	C710.690796,176.636963 712.432678,177.804886 713.941833,178.793274 
	C716.094421,174.351471 716.366760,173.177628 716.226807,169.117920 
	C713.284851,168.119858 713.435486,172.713455 710.458313,172.187683 
	C709.917236,169.727249 711.181519,168.054672 713.070984,166.973923 
	C716.873901,164.798676 721.043701,166.822678 725.047974,166.344467 
	C726.295654,166.195450 727.428528,168.262817 726.396118,169.890579 
	C725.012146,172.072723 723.408630,171.232635 721.834351,169.063232 
	C720.881104,173.086807 719.255127,176.183670 719.566772,179.621353 
	C721.058716,180.323608 721.648987,179.340500 722.597290,178.518585 
z"/>
<path fill="#000000" opacity="1.000000" stroke="none" 
	d="
M81.428513,410.295013 
	C82.559883,412.274536 83.546677,413.918030 84.791687,415.991608 
	C80.016190,414.942810 76.541451,410.145569 75.801743,404.457275 
	C74.370354,393.449982 77.172348,385.469269 84.999260,381.495972 
	C78.867470,391.117645 77.093781,400.287720 81.428513,410.295013 
z"/>
<path fill="#000000" opacity="1.000000" stroke="none" 
	d="
M704.572571,160.728928 
	C699.362915,170.897781 700.765076,180.285446 707.010681,189.474701 
	C702.638977,188.696289 698.982178,183.263199 698.100830,177.014359 
	C696.831116,168.012070 700.243347,159.044281 706.085632,156.162903 
	C707.458313,158.156570 705.360596,159.057877 704.572571,160.728928 
z"/>
<path fill="#000000" opacity="1.000000" stroke="none" 
	d="
M793.678345,175.543610 
	C792.709351,181.534683 791.204163,186.771561 785.586121,189.942947 
	C791.672363,178.516190 792.002075,167.304108 784.364258,155.781921 
	C790.739075,158.235168 793.749573,165.053864 793.678345,175.543610 
z"/>
<path fill="#000000" opacity="1.000000" stroke="none" 
	d="
M739.100525,184.628418 
	C736.280884,189.466217 732.482056,186.670929 728.706665,186.951599 
	C729.096375,183.392899 731.885559,182.189056 733.214478,180.026611 
	C734.572327,177.817047 736.076111,175.564484 733.793396,173.094193 
	C731.481628,173.505722 732.933899,177.738907 729.686096,176.542999 
	C728.593872,176.140823 728.347961,175.065948 728.606262,174.033340 
	C729.280334,171.337982 731.281433,170.324142 733.837463,170.379456 
	C738.312073,170.476288 740.594971,174.755737 738.128235,178.481552 
	C737.046875,180.114838 735.624390,181.522308 734.405823,182.973923 
	C735.669617,185.220642 738.395996,180.529175 739.100525,184.628418 
z"/>
<path fill="#000000" opacity="1.000000" stroke="none" 
	d="
M782.260559,176.640686 
	C781.839050,179.671036 779.087463,180.808533 778.242920,183.118332 
	C779.481445,184.483887 780.752563,182.039307 781.901062,183.320801 
	C781.515259,187.724640 779.801697,188.352417 772.617065,186.620468 
	C772.259399,183.255127 775.389160,181.963379 776.888184,179.765427 
	C778.590088,177.270172 779.729736,175.079102 777.173218,172.563019 
	C776.453674,172.956818 776.089539,173.047821 775.895996,173.280624 
	C775.020691,174.333389 776.040955,176.609634 773.801819,176.736649 
	C772.654724,176.801697 771.964355,175.942307 771.992981,174.798737 
	C772.038635,172.973831 772.979614,171.657654 774.639282,170.898621 
	C778.505737,169.130417 781.615784,171.304184 782.260559,176.640686 
z"/>
<path fill="#000000" opacity="1.000000" stroke="none" 
	d="
M167.498169,412.311798 
	C166.148880,414.104950 165.376373,416.118378 162.076797,415.841034 
	C169.569839,404.626831 169.822510,393.618469 162.095474,382.656982 
	C169.915787,382.785217 174.193069,401.726776 167.498169,412.311798 
z"/>
<path fill="#000000" opacity="1.000000" stroke="none" 
	d="
M111.491714,396.850403 
	C114.070251,397.980103 113.087730,400.039276 113.201653,401.730713 
	C113.451401,405.439117 112.541664,409.300659 115.169342,412.709930 
	C112.559822,413.706207 110.360306,413.627228 108.032516,412.712280 
	C110.140205,407.933716 110.885941,403.265442 107.739540,398.685120 
	C108.514580,397.412323 110.014984,397.474426 111.491714,396.850403 
z"/>
<path fill="#000000" opacity="1.000000" stroke="none" 
	d="
M156.690643,405.630432 
	C156.056885,408.390045 156.698059,410.518738 158.349594,412.425415 
	C155.979614,413.856598 153.954056,413.403717 151.767990,412.769562 
	C153.586060,407.942017 154.543411,403.184174 151.574203,398.470093 
	C152.790649,397.539337 154.117584,397.067200 156.116730,397.530182 
	C156.310608,400.031097 156.512741,402.638489 156.690643,405.630432 
z"/>
<path fill="#000000" opacity="1.000000" stroke="none" 
	d="
M121.286713,403.896698 
	C125.853813,406.332367 125.532913,411.495422 120.452309,414.411743 
	C121.246132,411.371674 121.864594,408.665070 119.698997,406.240051 
	C119.065453,405.530609 119.894882,404.410156 121.286713,403.896698 
z"/>
<path fill="#000000" opacity="1.000000" stroke="none" 
	d="
M746.735474,179.534561 
	C747.658936,183.342621 747.029541,186.231415 743.233704,188.581726 
	C743.145447,185.565674 745.487000,182.718475 742.430664,180.611816 
	C741.815857,180.188095 742.041687,179.011810 742.798767,178.448547 
	C744.267517,177.355881 745.538818,177.674896 746.735474,179.534561 
z"/>
</svg>